<?xml version="1.0" encoding="utf-8"?>
<!-- Generator: Adobe Illustrator 19.2.1, SVG Export Plug-In . SVG Version: 6.00 Build 0)  -->
<svg version="1.1" id="Layer_1" xmlns="http://www.w3.org/2000/svg" xmlns:xlink="http://www.w3.org/1999/xlink" x="0px" y="0px"
	 viewBox="0 0 405.8 180" style="enable-background:new 0 0 405.8 180;" xml:space="preserve">
<style type="text/css">
	.st0{fill:#2880BA;}
	.st1{fill:#E84C3C;}
	.st2{fill:none;stroke:url(#Line_2_);stroke-width:4;stroke-miterlimit:10;}
</style>
<g>
	<path class="st0" d="M38,38v7.5c0,9.2-4.4,14.2-13.5,14.2h-4.3v21.6h-9V23.8h13.3C33.6,23.8,38,28.8,38,38z M20.2,32v19.5h4.3
		c2.9,0,4.4-1.3,4.4-5.4v-8.6c0-4.1-1.6-5.4-4.4-5.4H20.2z"/>
	<path class="st0" d="M51.6,48.1h12.4v8.2H51.6v16.9h15.6v8.2H42.6V23.8h24.7V32H51.6V48.1z"/>
	<path class="st0" d="M72.1,37.6c0-9.2,4.9-14.5,13.7-14.5c8.9,0,13.7,5.3,13.7,14.5v29.9c0,9.2-4.9,14.5-13.7,14.5
		c-8.9,0-13.7-5.3-13.7-14.5V37.6z M81.2,68.1c0,4.1,1.8,5.7,4.7,5.7s4.7-1.6,4.7-5.7V37.1c0-4.1-1.8-5.7-4.7-5.7s-4.7,1.6-4.7,5.7
		V68.1z"/>
	<path class="st0" d="M132.2,38v7.5c0,9.2-4.4,14.2-13.5,14.2h-4.3v21.6h-9V23.8h13.3C127.8,23.8,132.2,28.8,132.2,38z M114.5,32
		v19.5h4.3c2.9,0,4.4-1.3,4.4-5.4v-8.6c0-4.1-1.6-5.4-4.4-5.4H114.5z"/>
	<path class="st0" d="M136.4,23.8h9v49.3h14.9v8.2h-23.9V23.8z"/>
	<path class="st0" d="M173.3,48.1h12.4v8.2h-12.4v16.9h15.6v8.2h-24.7V23.8h24.7V32h-15.6V48.1z"/>
	<path class="st0" d="M206.7,23.2c8.8,0,13.3,5.3,13.3,14.5v1.8h-8.5v-2.4c0-4.1-1.6-5.7-4.5-5.7c-2.9,0-4.5,1.6-4.5,5.7
		c0,11.8,17.7,14.1,17.7,30.5c0,9.2-4.6,14.5-13.5,14.5c-8.9,0-13.5-5.3-13.5-14.5V64h8.6v4.1c0,4.1,1.8,5.6,4.7,5.6
		c2.9,0,4.7-1.5,4.7-5.6c0-11.8-17.7-14.1-17.7-30.5C193.4,28.4,197.9,23.2,206.7,23.2z"/>
</g>
<g>
	<path class="st1" d="M246.9,110.6c7.1,0,10.1,4.2,10.1,11v5.4c0,7.2-3.4,10.9-10.5,10.9H242v17.8h-5v-45.1H246.9z M246.5,133.5
		c3.7,0,5.5-1.7,5.5-6.1v-6c0-4.1-1.5-6.2-5.2-6.2H242v18.2H246.5z"/>
	<path class="st1" d="M260.7,121.5c0-6.9,3.4-11.3,10.3-11.3c7,0,10.4,4.4,10.4,11.3v23.3c0,6.8-3.4,11.3-10.4,11.3
		c-6.9,0-10.3-4.5-10.3-11.3V121.5z M265.7,145.1c0,4.1,1.7,6.5,5.3,6.5c3.7,0,5.3-2.4,5.3-6.5v-23.8c0-4.1-1.7-6.5-5.3-6.5
		c-3.6,0-5.3,2.4-5.3,6.5V145.1z"/>
	<path class="st1" d="M286.2,155.8v-45.1h5v40.5h12.9v4.6H286.2z"/>
	<path class="st1" d="M312.9,110.6v45.1h-5v-45.1H312.9z"/>
	<path class="st1" d="M324.6,155.8v-40.5h-8.3v-4.6h21.6v4.6h-8.3v40.5H324.6z"/>
	<path class="st1" d="M346.3,110.6v45.1h-5v-45.1H346.3z"/>
	<path class="st1" d="M371.3,121.5v4.1h-4.8v-4.3c0-4.1-1.6-6.5-5.3-6.5c-3.6,0-5.3,2.4-5.3,6.5v23.8c0,4.1,1.7,6.5,5.3,6.5
		c3.7,0,5.3-2.4,5.3-6.5v-5.9h4.8v5.6c0,6.8-3.2,11.3-10.2,11.3c-6.9,0-10.1-4.5-10.1-11.3v-23.3c0-6.8,3.2-11.3,10.1-11.3
		C368.1,110.2,371.3,114.7,371.3,121.5z"/>
	<path class="st1" d="M395.4,121.5v1.2h-4.8v-1.5c0-4.1-1.5-6.4-5.2-6.4s-5.2,2.4-5.2,6.4c0,10.1,15.1,11.1,15.1,23.8
		c0,6.8-3.3,11.3-10.2,11.3s-10.1-4.4-10.1-11.3v-2.6h4.7v2.8c0,4.1,1.7,6.4,5.3,6.4s5.3-2.4,5.3-6.4c0-10.1-15.1-11-15.1-23.7
		c0-7,3.2-11.3,10-11.3C392.2,110.2,395.4,114.6,395.4,121.5z"/>
</g>
<linearGradient id="Line_2_" gradientUnits="userSpaceOnUse" x1="5.3649" y1="93.9629" x2="400.4749" y2="93.9629">
	<stop  offset="0.56" style="stop-color:#2A81BA"/>
	<stop  offset="0.5601" style="stop-color:#E84D3D"/>
</linearGradient>
<line id="Line_1_" class="st2" x1="5.4" y1="94" x2="400.5" y2="94"/>
</svg>
